<svg xmlns="http://www.w3.org/2000/svg" width="35" height="41.65" viewBox="0 0 35 41.65">
  <path id="Icon_awesome-apple" data-name="Icon awesome-apple" d="M29.544,24.26c-.019-3.413,1.525-5.988,4.649-7.885a9.991,9.991,0,0,0-7.876-4.147c-3.3-.26-6.909,1.925-8.229,1.925-1.395,0-4.594-1.832-7.1-1.832C5.8,12.4.281,16.458.281,24.706a23.176,23.176,0,0,0,1.339,7.55C2.81,35.669,7.106,44.038,11.588,43.9c2.343-.056,4-1.664,7.048-1.664,2.957,0,4.491,1.664,7.1,1.664,4.519-.065,8.406-7.671,9.54-11.093-6.063-2.855-5.737-8.369-5.737-8.545ZM24.281,8.991A8.758,8.758,0,0,0,26.513,2.25,9.86,9.86,0,0,0,20.2,5.5a8.9,8.9,0,0,0-2.38,6.686c2.427.186,4.64-1.06,6.463-3.189Z" transform="translate(-0.281 -2.25)" fill="#fff"/>
</svg>
