<svg id="Footers_Social_link" data-name="Footers/Social link" xmlns="http://www.w3.org/2000/svg" width="20" height="20" viewBox="0 0 20 20">
  <g id="Footers_Social_icon" data-name="Footers/Social icon">
    <path id="Icon" d="M10.315,0c2.43,0,2.784.013,3.808.06A7.355,7.355,0,0,1,16.55.525a4.9,4.9,0,0,1,1.772,1.153A4.9,4.9,0,0,1,19.475,3.45a7.355,7.355,0,0,1,.465,2.427C19.988,6.944,20,7.284,20,10v.08c0,2.643-.012,2.987-.06,4.043a7.355,7.355,0,0,1-.465,2.427,5.106,5.106,0,0,1-2.925,2.925,7.355,7.355,0,0,1-2.427.465c-1.067.048-1.407.06-4.123.06H9.92c-2.643,0-2.987-.012-4.043-.06a7.355,7.355,0,0,1-2.427-.465,4.9,4.9,0,0,1-1.772-1.153A4.9,4.9,0,0,1,.525,16.55,7.355,7.355,0,0,1,.06,14.123C.013,13.1,0,12.744,0,10.315v-.63C0,7.255.013,6.9.06,5.877A7.355,7.355,0,0,1,.525,3.45,4.9,4.9,0,0,1,1.678,1.678,4.9,4.9,0,0,1,3.45.525,7.355,7.355,0,0,1,5.877.06C6.9.013,7.256,0,9.685,0Zm-.081,1.8H9.766c-2.456,0-2.784.011-3.807.058A5.552,5.552,0,0,0,4.1,2.2a3.1,3.1,0,0,0-1.15.748A3.1,3.1,0,0,0,2.2,4.1,5.526,5.526,0,0,0,1.86,5.959C1.813,6.982,1.8,7.31,1.8,9.766v.468c0,2.456.011,2.784.058,3.807A5.552,5.552,0,0,0,2.2,15.9a3.31,3.31,0,0,0,1.9,1.9,5.526,5.526,0,0,0,1.857.344c1.054.048,1.37.058,4.041.058h.08c2.6,0,2.917-.01,3.96-.058A5.554,5.554,0,0,0,15.9,17.8a3.31,3.31,0,0,0,1.9-1.9,5.526,5.526,0,0,0,.344-1.857c.048-1.055.058-1.37.058-4.041V9.92c0-2.6-.01-2.917-.058-3.96A5.554,5.554,0,0,0,17.8,4.1a3.1,3.1,0,0,0-.748-1.15A3.1,3.1,0,0,0,15.9,2.2a5.526,5.526,0,0,0-1.857-.344C13.018,1.813,12.69,1.8,10.234,1.8ZM10,4.865a5.135,5.135,0,1,1-3.631,1.5A5.135,5.135,0,0,1,10,4.865Zm0,1.8a3.333,3.333,0,1,0,2.357.976A3.333,3.333,0,0,0,10,6.667Zm5.338-3.2a1.2,1.2,0,1,1-.849.351A1.2,1.2,0,0,1,15.338,3.462Z" fill="#b5b2b2" fill-rule="evenodd"/>
  </g>
</svg>
