<svg id="Footers_Social_link" data-name="Footers/Social link" xmlns="http://www.w3.org/2000/svg" width="20" height="16.253" viewBox="0 0 20 16.253">
  <g id="Footers_Social_icon" data-name="Footers/Social icon">
    <path id="Icon" d="M6.29,16.253A11.6,11.6,0,0,0,17.965,4.578c0-.178,0-.355-.012-.53A8.348,8.348,0,0,0,20,1.922a8.19,8.19,0,0,1-2.357.646A4.118,4.118,0,0,0,19.447.3a8.224,8.224,0,0,1-2.605,1A4.107,4.107,0,0,0,9.849,5.037,11.65,11.65,0,0,1,5.165,3.793,11.65,11.65,0,0,1,1.392.75a4.106,4.106,0,0,0,1.27,5.477A4.072,4.072,0,0,1,.8,5.715v.052A4.1,4.1,0,0,0,4.092,9.789a4.1,4.1,0,0,1-1.853.07,4.108,4.108,0,0,0,3.834,2.85A8.233,8.233,0,0,1,0,14.409a11.616,11.616,0,0,0,6.29,1.84" transform="translate(0 0)" fill="#b5b2b2"/>
  </g>
</svg>
